<svg width="22" height="22" viewBox="0 0 22 22" fill="none" xmlns="http://www.w3.org/2000/svg">
<path fill-rule="evenodd" clip-rule="evenodd" d="M20.5562 5.0655L11.8759 12.254C11.6292 12.4584 11.3189 12.5702 10.9986 12.5702C10.6783 12.5702 10.368 12.4584 10.1214 12.254L1.44512 5.0655C1.39855 5.20562 1.37487 5.35234 1.375 5.5V16.5C1.375 16.8647 1.51987 17.2144 1.77773 17.4723C2.03559 17.7301 2.38533 17.875 2.75 17.875H19.25C19.6147 17.875 19.9644 17.7301 20.2223 17.4723C20.4801 17.2144 20.625 16.8647 20.625 16.5V5.5C20.6256 5.35241 20.6024 5.2057 20.5562 5.0655ZM2.75 2.75H19.25C19.9793 2.75 20.6788 3.03973 21.1945 3.55546C21.7103 4.07118 22 4.77065 22 5.5V16.5C22 17.2293 21.7103 17.9288 21.1945 18.4445C20.6788 18.9603 19.9793 19.25 19.25 19.25H2.75C2.02065 19.25 1.32118 18.9603 0.805456 18.4445C0.289731 17.9288 0 17.2293 0 16.5V5.5C0 4.77065 0.289731 4.07118 0.805456 3.55546C1.32118 3.03973 2.02065 2.75 2.75 2.75ZM2.46125 4.125L10.1283 10.4541C10.3738 10.6569 10.6822 10.7682 11.0006 10.769C11.3191 10.7697 11.628 10.6599 11.8745 10.4583L19.6185 4.125H2.46125Z" fill="black"/>
</svg>
